<svg width="34" height="29" viewBox="0 0 34 29" fill="#231F20" xmlns="http://www.w3.org/2000/svg">
<path fill-rule="evenodd" clip-rule="evenodd" d="M8.42963 4.2142L11.5266 19.7802L28.3366 18.7912L31.7276 4.0342H20.0506L8.42963 4.2142ZM11.0356 21.0172C10.7506 21.0172 10.5006 20.8152 10.4446 20.5312L7.13863 3.9112L4.56963 1.2072H0.603634C0.270634 1.2072 -0.000366211 0.9372 -0.000366211 0.6042C-0.000366211 0.2702 0.270634 0.000200272 0.603634 0.000200272H4.82863C4.99463 0.000200272 5.15263 0.0682003 5.26663 0.1882L7.95163 3.0142L20.0416 2.8272H32.4856C32.6696 2.8272 32.8436 2.9112 32.9576 3.0552C33.0726 3.1992 33.1156 3.3872 33.0736 3.5662L29.4116 19.5022C29.3516 19.7632 29.1266 19.9542 28.8596 19.9692L11.0726 21.0162C11.0606 21.0172 11.0486 21.0172 11.0356 21.0172Z" fill="#231F20"/>
<path fill-rule="evenodd" clip-rule="evenodd" d="M29.4276 23.4718H11.1166C10.7836 23.4718 10.5126 23.2008 10.5126 22.8678V20.4128C10.5126 20.0798 10.7836 19.8098 11.1166 19.8098C11.4496 19.8098 11.7206 20.0798 11.7206 20.4128V22.2638H29.4276C29.7606 22.2638 30.0316 22.5348 30.0316 22.8678C30.0316 23.2008 29.7606 23.4718 29.4276 23.4718Z" fill="#231F20"/>
<path fill-rule="evenodd" clip-rule="evenodd" d="M14.417 26.2785C14.417 27.5785 13.363 28.6325 12.063 28.6325C10.763 28.6325 9.70898 27.5785 9.70898 26.2785C9.70898 24.9785 10.763 23.9245 12.063 23.9245C13.363 23.9245 14.417 24.9785 14.417 26.2785Z" fill="#231F20"/>
<path fill-rule="evenodd" clip-rule="evenodd" d="M30.2723 26.2785C30.2723 27.5785 29.2183 28.6325 27.9183 28.6325C26.6183 28.6325 25.5643 27.5785 25.5643 26.2785C25.5643 24.9785 26.6183 23.9245 27.9183 23.9245C29.2183 23.9245 30.2723 24.9785 30.2723 26.2785Z"/>
</svg>
