<svg width="20" height="25" viewBox="0 0 20 25" fill="#212A2F" xmlns="http://www.w3.org/2000/svg">
<path d="M9.60506 12.0445C6.46073 12.0445 3.91174 9.49555 3.91174 6.35122C3.91174 3.20688 6.46073 0.657898 9.60506 0.657898C12.7494 0.657898 15.2984 3.20688 15.2984 6.35122C15.2984 7.86118 14.6986 9.3093 13.6308 10.377C12.5631 11.4447 11.115 12.0445 9.60506 12.0445ZM9.60506 1.92308C7.15947 1.92308 5.17693 3.90562 5.17693 6.35122C5.17693 8.79681 7.15947 10.7794 9.60506 10.7794C12.0507 10.7794 14.0332 8.79681 14.0332 6.35122C14.0416 5.17133 13.5788 4.03687 12.7475 3.19958C11.9161 2.36229 10.785 1.89145 9.60506 1.89145V1.92308Z" fill="#212A2F"/>
<path d="M17.367 24.3737H1.84319C1.33028 24.3782 0.83907 24.1671 0.489445 23.7918C0.196114 23.4755 0.0472063 23.0517 0.078261 22.6215C0.59066 17.0294 4.68352 12.81 9.60508 12.81C14.5266 12.81 18.6195 16.9977 19.1319 22.6215C19.172 23.0623 19.0225 23.4995 18.7207 23.8234C18.3656 24.187 17.8751 24.3865 17.367 24.3737ZM9.60508 14.0435C5.34142 14.0435 1.78626 17.7695 1.33712 22.7037C1.33162 22.7908 1.36389 22.8761 1.42568 22.9378C1.53496 23.0504 1.6863 23.1123 1.84319 23.1086H17.367C17.5239 23.1123 17.6752 23.0504 17.7845 22.9378C17.8463 22.8761 17.8785 22.7908 17.873 22.7037C17.4239 17.7695 13.8687 14.0435 9.60508 14.0435Z" />
</svg>
